<?xml version="1.0" encoding="utf-8"?>
<!-- Generator: Adobe Illustrator 16.0.4, SVG Export Plug-In . SVG Version: 6.00 Build 0)  -->
<!DOCTYPE svg PUBLIC "-//W3C//DTD SVG 1.1//EN" "http://www.w3.org/Graphics/SVG/1.1/DTD/svg11.dtd">
<svg version="1.1" id="Calque_1" xmlns="http://www.w3.org/2000/svg" xmlns:xlink="http://www.w3.org/1999/xlink" x="0px" y="0px"
	 width="2245.886px" height="844px" viewBox="0 258.5 2245.886 844" enable-background="new 0 258.5 2245.886 844"
	 xml:space="preserve">
<g>
	<path fill="#319F49" d="M25.436,728.709h222.251v51.149H90.699v39.69h149.637v49.39H90.699v72.612H25.436V728.709z"/>
	<path fill="#319F49" d="M281.478,728.709h232.834v49.39h-167.57v34.101h158.751V856.3H346.742v34.1h171.393v51.153H281.478V728.709
		z"/>
	<path fill="#319F49" d="M537.518,728.709h196.97c50.271,0,63.795,24.985,63.795,63.204v13.524c0,28.515-6.47,45.271-36.456,52.328
		v0.587c19.402,3.53,35.572,12.055,35.572,47.038v36.16h-65.266v-25.576c0-22.344-6.467-29.691-26.753-29.691h-102.6v55.27h-65.265
		L537.518,728.709L537.518,728.709z M602.781,833.365h107.893c17.639,0,24.107-7.055,24.107-22.34v-7.06
		c0-18.814-9.407-22.342-29.987-22.342H602.781V833.365z"/>
	<path fill="#319F49" d="M817.368,728.709h196.969c50.272,0,63.794,24.985,63.794,63.204v13.524
		c0,28.515-6.468,45.271-36.453,52.328v0.587c19.402,3.53,35.571,12.055,35.571,47.038v36.16h-65.265v-25.576
		c0-22.344-6.467-29.691-26.751-29.691H882.632v55.27h-65.264V728.709L817.368,728.709z M882.632,833.365h107.894
		c17.639,0,24.104-7.055,24.104-22.34v-7.06c0-18.814-9.407-22.342-29.985-22.342H882.632V833.365z"/>
	<path fill="#319F49" d="M1100.452,728.709h232.833v49.39h-167.57v34.101h158.752V856.3h-158.752v34.1h171.395v51.153h-236.655
		L1100.452,728.709L1100.452,728.709z M1217.75,654.036h71.438l-62.324,58.208h-46.74L1217.75,654.036z"/>
	<path fill="#319F49" d="M1690.423,728.709h248.709v52.916h-91.721v159.928h-65.268V781.625h-91.723v-52.916H1690.423z"/>
	<path fill="#319F49" d="M1955.578,728.709h177.859c62.031,0,77.023,31.16,77.023,72.907v18.228
		c0,31.751-13.818,68.203-59.977,68.203h-129.645v53.506h-65.268V728.709H1955.578z M2020.843,835.132h101.422
		c15.289,0,21.166-9.994,21.166-22.639v-8.231c0-14.406-7.055-22.636-26.752-22.636h-95.836V835.132L2020.843,835.132z"/>
</g>
<g>
	<path fill="#C31924" d="M1663.38,984.688c-12.014,3.513-23.994,10.208-33.768,30.609c-13.756-1.314-28.838,10.665-27.953,27.518
		c-23.939,2.655-38.609,3.527-52.379,26.649c108.764-0.479,217.938,0.868,326.686,0c-7.104-12.882-15.113-27.964-42.615-27.964
		c-3.119-8.012-11.094-12.896-18.656-14.688c1.805-19.92-11.096-50.146-42.582-39.057c-22.662-48.354-69.238-47.054-93.666-9.729
		L1543.05,868.401l57.295-105.179c7.977-16.877,14.182-19.109-4.461-47.982l-38.182-55.016c-9.311-11.13-7.502-14.646-34.152-14.609
		c-32.85-0.067-67.016-0.035-99.883,0c-11.967,0.396-19.514,10.617-23.088,26.589l-15.963,70.126L1368.632,729
		c-8.865-7.098-17.727,3.102-9.305,11.566l22.609,18.197c0.02,11.083,8.418,18.165,16,18.188
		c-22.236,20.419-26.211,19.962-26.225,39.929v113.658l-25.287,101.179c-10.617,41.303,39.072,50.587,49.312,15.556l31.943-124.295
		l-0.457-79.439l65.246,80.348l-51.463,106.504c-16.9,34.604,26.154,56.417,46.146,22.6c19.064-37.252,38.605-74.962,57.68-112.26
		c10.232-18.666,7.99-29.737,0.012-38.599c-4.424-3.979-8.434-9.776-12.896-13.756l3.594-6.241L1663.38,984.688L1663.38,984.688z
		 M1439.207,695.75l39.52,0.396l-51.041,50.606L1439.207,695.75L1439.207,695.75z M1505.339,838.223l-33.299-26.644l63.506-27.09
		L1505.339,838.223z"/>
	<path fill="#C31924" d="M1631.841,628.744c23.514-0.019,42.617,19.043,42.617,42.156c0,22.63-19.088,41.695-42.617,41.695
		c-23.074,0-42.17-19.101-42.17-41.717C1589.671,647.787,1608.767,628.727,1631.841,628.744z"/>
</g>
<g>
	<path d="M200.203,529.045h53.96v11.479h-19.9v34.698h-14.161v-34.698h-19.899V529.045z"/>
	<path d="M260.685,529.045h42.735c10.907,0,13.84,5.423,13.84,13.715v2.933c0,6.188-1.404,9.823-7.909,11.354v0.127
		c4.21,0.765,7.717,2.612,7.717,10.206v7.845H302.91v-5.549c0-4.851-1.404-6.442-5.805-6.442h-22.26v11.991h-14.16V529.045z
		 M274.845,551.753h23.409c3.827,0,5.229-1.531,5.229-4.851v-1.531c0-4.08-2.041-4.847-6.506-4.847h-22.132V551.753z"/>
	<path d="M347.638,529.045h18.434l25.385,46.18h-15.754l-4.401-8.164H342.6l-4.145,8.164h-15.819L347.638,529.045z M347.895,557.11
		h18.113l-9.184-17.348L347.895,557.11z"/>
	<path d="M382.163,529.045h15.499l18.05,34.313l18.05-34.313h15.5l-24.812,46.18h-17.479L382.163,529.045z"/>
	<path d="M464.968,529.045h18.436l25.385,46.18h-15.754l-4.401-8.164H459.93l-4.145,8.164h-15.819L464.968,529.045z M465.225,557.11
		h18.113l-9.184-17.348L465.225,557.11z"/>
	<path d="M511.613,529.045h14.16v26.659c0,5.868,2.104,8.165,7.907,8.165h14.033c5.806,0,7.908-2.296,7.908-8.165v-26.659h14.16
		v29.724c0,11.481-5.933,16.965-18.942,16.965h-20.284c-13.012,0-18.941-5.482-18.941-16.965L511.613,529.045L511.613,529.045z"/>
	<path d="M595.441,552.071l-21.05-23.024h18.307l14.352,16.138l14.354-16.138h18.305l-21.048,23.024l22.643,23.153h-19.007
		l-15.244-16.775l-15.244,16.775H572.8L595.441,552.071z"/>
	<path d="M673.604,529.045h38.589c13.458,0,16.711,6.762,16.711,15.816v3.955c0,6.888-2.999,14.797-13.014,14.797h-28.127v11.609
		h-14.159V529.045z M687.763,552.136h22.004c3.317,0,4.594-2.169,4.594-4.912v-1.786c0-3.125-1.53-4.912-5.806-4.912h-20.792
		V552.136L687.763,552.136z"/>
	<path d="M734.341,529.045h14.16v26.659c0,5.868,2.104,8.165,7.909,8.165h14.033c5.804,0,7.908-2.296,7.908-8.165v-26.659h14.158
		v29.724c0,11.481-5.932,16.965-18.94,16.965h-20.283c-13.013,0-18.944-5.482-18.944-16.965L734.341,529.045L734.341,529.045z"/>
	<path d="M799.866,529.045h40.756c11.29,0,16.774,3.062,16.774,12.117c0,7.91-2.87,9.441-6.824,10.592v0.188
		c6.188,0.767,8.481,4.082,8.481,11.035c0,10.141-5.995,12.247-14.097,12.247h-45.094v-46.182h0.003V529.045z M814.025,547.352
		h25.065c2.614,0,4.146-0.957,4.146-3.572c0-2.679-1.531-3.636-4.146-3.636h-25.065V547.352z M814.025,564.127h25.385
		c3.062,0,5.103-0.702,5.103-3.384c0-3.125-2.041-3.824-5.103-3.824h-25.385V564.127z"/>
	<path d="M865.389,529.045h14.16v34.313h31.828v11.864H865.39L865.389,529.045L865.389,529.045z"/>
	<path d="M915.918,529.045h14.16v46.18h-14.16V529.045z"/>
	<path d="M937.164,545.244c0-13.521,7.591-16.71,20.347-16.71h16.646c20.155,0,22.771,4.337,22.644,17.413h-14.16v-1.273
		c0-3.317-2.424-4.274-6.633-4.274h-15.436c-7.462,0-8.866,3.508-8.866,9.249v4.975c0,6.697,1.404,9.248,8.102,9.248h15.116
		c6.378,0,8.292-0.637,8.292-6.378h14.16v4.337c0,7.782-2.807,13.905-17.03,13.905h-22.834c-12.756,0-20.347-3.188-20.347-16.71
		L937.164,545.244L937.164,545.244z"/>
	<path d="M1002.878,560.107h14.16c0.062,4.912,2.041,5.294,6.123,5.294h17.349c2.998,0,6.062-0.318,6.062-3.89
		c0-4.021-1.658-4.274-19.9-4.274c-21.303,0-23.728-2.551-23.728-13.905c0-8.354,0.767-14.797,18.626-14.797h19.771
		c16.329,0,17.859,5.55,17.859,13.65v1.467h-14.159c0-3.38-0.382-4.784-6.888-4.784h-15.691c-3.189,0-5.357,1.084-5.357,3.572
		c0,4.018,1.725,4.146,16.902,4.082c22.005-0.064,27.108,1.276,27.108,14.734c0,12.437-4.21,14.478-23.026,14.478h-17.158
		c-12.884,0-18.05-2.423-18.05-12.437L1002.878,560.107L1002.878,560.107z"/>
	<path d="M271.212,599.446h50.517v10.717h-36.356v7.398h34.443v9.568h-34.443v7.397h37.185v11.099h-51.345L271.212,599.446
		L271.212,599.446z"/>
	<path d="M325.509,599.446h53.96v11.481h-19.9v34.698h-14.16v-34.698H325.51L325.509,599.446L325.509,599.446z"/>
	<path d="M412.723,599.446h38.586c13.459,0,16.712,6.762,16.712,15.819v3.954c0,6.888-2.997,14.797-13.012,14.797h-28.128v11.609
		h-14.16L412.723,599.446L412.723,599.446z M426.883,622.535h22.005c3.317,0,4.593-2.168,4.593-4.91v-1.785
		c0-3.125-1.529-4.912-5.805-4.912h-20.793V622.535L426.883,622.535z"/>
	<path d="M490.107,599.446h18.434l25.385,46.18h-15.754l-4.402-8.162h-28.7l-4.146,8.162h-15.817L490.107,599.446z M490.362,627.511
		h18.113l-9.185-17.35L490.362,627.511z"/>
	<path d="M536.751,599.446h42.735c10.905,0,13.84,5.423,13.84,13.714v2.936c0,6.188-1.403,9.821-7.909,11.354v0.127
		c4.21,0.767,7.717,2.614,7.717,10.206v7.846h-14.159v-5.55c0-4.848-1.401-6.44-5.805-6.44h-22.26v11.992h-14.16L536.751,599.446
		L536.751,599.446z M550.911,622.154h23.409c3.827,0,5.229-1.531,5.229-4.848v-1.531c0-4.082-2.041-4.847-6.506-4.847h-22.132
		V622.154z"/>
	<path d="M597.298,599.446h53.96v11.481h-19.899v34.698h-14.16v-34.698h-19.899L597.298,599.446L597.298,599.446z"/>
	<path d="M655.994,599.446h14.16v46.18h-14.16V599.446z"/>
	<path d="M677.241,615.647c0-13.521,7.591-16.711,20.348-16.711h16.646c20.154,0,22.771,4.337,22.644,17.413h-14.16v-1.275
		c0-3.315-2.424-4.272-6.633-4.272H700.65c-7.463,0-8.867,3.508-8.867,9.249v4.975c0,6.697,1.404,9.249,8.102,9.249H715
		c6.378,0,8.292-0.638,8.292-6.378h14.16v4.337c0,7.781-2.809,13.905-17.03,13.905h-22.834c-12.757,0-20.348-3.188-20.348-16.711
		L677.241,615.647L677.241,615.647z"/>
	<path d="M743.785,599.446h14.16v26.661c0,5.868,2.104,8.165,7.91,8.165h14.03c5.806,0,7.908-2.296,7.908-8.165v-26.661h14.16
		v29.726c0,11.479-5.933,16.966-18.942,16.966h-20.283c-13.013,0-18.942-5.484-18.942-16.966L743.785,599.446L743.785,599.446z"/>
	<path d="M809.309,599.446h14.16v34.315h31.828v11.864h-45.988V599.446z"/>
	<path d="M859.837,599.446h14.16v46.18h-14.16V599.446z"/>
	<path d="M882.105,599.446h50.517v10.717h-36.356v7.398h34.443v9.568h-34.443v7.397h37.186v11.099h-51.346V599.446L882.105,599.446z
		"/>
	<path d="M939.78,599.446h42.732c10.907,0,13.841,5.423,13.841,13.714v2.936c0,6.188-1.402,9.821-7.908,11.354v0.127
		c4.209,0.767,7.717,2.614,7.717,10.206v7.846h-14.159v-5.55c0-4.848-1.403-6.44-5.805-6.44h-22.261v11.992h-14.159v-46.183
		L939.78,599.446L939.78,599.446z M953.939,622.154h23.407c3.827,0,5.229-1.531,5.229-4.848v-1.531c0-4.082-2.041-4.847-6.505-4.847
		h-22.134v11.226H953.939z"/>
	<path d="M1002.88,630.509h14.16c0.063,4.912,2.041,5.293,6.123,5.293h17.348c2.998,0,6.062-0.317,6.062-3.892
		c0-4.019-1.659-4.272-19.9-4.272c-21.303,0-23.728-2.551-23.728-13.905c0-8.354,0.767-14.797,18.626-14.797h19.771
		c16.328,0,17.859,5.549,17.859,13.65v1.466h-14.16c0-3.38-0.382-4.784-6.888-4.784h-15.691c-3.189,0-5.357,1.084-5.357,3.572
		c0,4.018,1.724,4.146,16.901,4.082c22.005-0.064,27.108,1.274,27.108,14.733c0,12.438-4.21,14.479-23.026,14.479h-17.158
		c-12.883,0-18.049-2.423-18.049-12.438V630.509L1002.88,630.509z"/>
</g>
<g>
	<path fill="#319F49" d="M583.429,960.524h48.798c17.021,0,21.134,8.549,21.134,20.004v4.999c0,8.712-3.79,18.715-16.453,18.715
		h-35.57v14.681H583.43L583.429,960.524L583.429,960.524z M601.336,989.721h27.827c4.194,0,5.807-2.74,5.807-6.209v-2.258
		c0-3.953-1.936-6.211-7.339-6.211h-26.294L601.336,989.721L601.336,989.721z"/>
	<path fill="#319F49" d="M660.215,960.524h63.881v13.55h-45.975v9.356h43.556v12.101h-43.556v9.356h47.021v14.033h-64.93
		L660.215,960.524L660.215,960.524z M672.153,940.035h19.6l10.324,15.973h-12.825L672.153,940.035z"/>
	<path fill="#319F49" d="M733.126,960.524h54.042c13.792,0,17.503,6.856,17.503,17.341v3.712c0,7.823-1.774,12.422-10.002,14.354
		v0.164c5.323,0.968,9.76,3.306,9.76,12.905v9.92h-17.907v-7.02c0-6.129-1.772-8.146-7.339-8.146h-28.147v15.163h-17.907
		L733.126,960.524L733.126,960.524z M751.034,989.24h29.602c4.838,0,6.613-1.937,6.613-6.13v-1.937c0-5.162-2.581-6.133-8.228-6.133
		h-27.987V989.24z"/>
	<path fill="#319F49" d="M813.944,960.524h63.881v13.55H831.85v9.356h43.557v12.101H831.85v9.356h47.023v14.033h-64.929V960.524z"/>
	<path fill="#319F49" d="M923.876,960.524h63.881v13.55h-45.975v9.356h43.555v12.101h-43.555v9.356h47.021v14.033h-64.93
		L923.876,960.524L923.876,960.524z"/>
	<path fill="#319F49" d="M992.515,960.524h68.235v14.521h-25.164v43.878h-17.907v-43.878h-25.165L992.515,960.524L992.515,960.524z"
		/>
	<path fill="#319F49" d="M1102.77,960.524h60.978v14.034h-43.072v10.889h41.056v13.55h-41.056v19.926h-17.906V960.524z"/>
	<path fill="#319F49" d="M1172.703,960.524h17.902v58.396h-17.902V960.524z"/>
	<path fill="#319F49" d="M1200.847,960.524h17.904v43.396h40.25v15.002h-58.154V960.524L1200.847,960.524z"/>
	<path fill="#319F49" d="M1262.71,999.805h17.904c0.082,6.211,2.58,6.695,7.74,6.695h21.939c3.791,0,7.664-0.404,7.664-4.924
		c0-5.076-2.098-5.4-25.168-5.4c-26.938,0-30.004-3.228-30.004-17.583c0-10.568,0.969-18.712,23.551-18.712h25.006
		c20.648,0,22.584,7.016,22.584,17.259v1.854h-17.906c0-4.274-0.48-6.05-8.711-6.05h-19.84c-4.035,0-6.775,1.372-6.775,4.521
		c0,5.081,2.18,5.242,21.373,5.161c27.826-0.08,34.277,1.61,34.277,18.632c0,15.727-5.322,18.308-29.115,18.308h-21.695
		c-16.293,0-22.824-3.063-22.824-15.727V999.805L1262.71,999.805z"/>
</g>
<polygon fill="#319F49" points="1633.828,601.154 1917.099,321.178 1895.388,321.178 1612.119,601.154 "/>
<polygon fill="#C31924" points="1704.25,472.139 1544.519,630.012 1566.228,630.012 1725.962,472.139 "/>
</svg>
